<svg xmlns="http://www.w3.org/2000/svg" viewBox="0 0 100 120">
  <defs>
    <linearGradient id="shieldGradient" x1="0%" y1="0%" x2="0%" y2="100%">
      <stop offset="0%" style="stop-color:#00ff88;stop-opacity:1" />
      <stop offset="100%" style="stop-color:#00cc66;stop-opacity:1" />
    </linearGradient>
    <filter id="glow">
      <feGaussianBlur stdDeviation="2" result="coloredBlur"/>
      <feMerge>
        <feMergeNode in="coloredBlur"/>
        <feMergeNode in="SourceGraphic"/>
      </feMerge>
    </filter>
  </defs>
  <!-- Shield glow effect -->
  <path d="M 50 10 L 75 15 L 85 25 L 85 50 Q 85 70 75 85 Q 65 100 50 110 Q 35 100 25 85 Q 15 70 15 50 L 15 25 L 25 15 Z" 
        fill="#00ff88" 
        opacity="0.3" 
        filter="url(#glow)"/>
  <!-- Main shield -->
  <path d="M 50 10 L 75 15 L 85 25 L 85 50 Q 85 70 75 85 Q 65 100 50 110 Q 35 100 25 85 Q 15 70 15 50 L 15 25 L 25 15 Z" 
        fill="url(#shieldGradient)" 
        stroke="#00ff88" 
        stroke-width="2"/>
</svg>
